<svg xmlns="http://www.w3.org/2000/svg" xmlns:xlink="http://www.w3.org/1999/xlink" xmlns:lucid="lucid" width="2050.99" height="607.5"><g transform="translate(1322 -114.50004999999982)" lucid:page-tab-id="0_0"><path d="M-1180 400c22.1 0 40 17.9 40 40s-17.9 40-40 40h-80c-22.1 0-40-17.9-40-40s17.9-40 40-40z" stroke="#4d9eff" stroke-width="4" fill-opacity="0"/><use xlink:href="#a" transform="matrix(1,0,0,1,-1295,404.99999999999994) translate(43.82407407407409 40.6111111111111)"/><path d="M-345.03 382.7a11.97 11.97 0 0 1 10.73 0l108.94 54.6a3 3 0 0 1 0 5.4l-108.94 54.6a11.97 11.97 0 0 1-10.73 0l-108.93-54.6a3 3 0 0 1 0-5.4z" stroke="#4d9eff" stroke-width="4" fill="#fff"/><use xlink:href="#b" transform="matrix(1,0,0,1,-454.32692562968623,385) translate(81.70253086419756 36.8611111111111)"/><use xlink:href="#c" transform="matrix(1,0,0,1,-454.32692562968623,385) translate(56.1253703703704 71.52777777777776)"/><path d="M-133 366.33a6 6 0 0 1 6-6H61a6 6 0 0 1 6 6v147.34a6 6 0 0 1-6 6h-188a6 6 0 0 1-6-6z" stroke="#4d9eff" stroke-width="3" fill-opacity="0"/><use xlink:href="#d" transform="matrix(1,0,0,1,-128.00956118515774,365.3333332651531) translate(7.290123456790155 46.5486111111111)"/><use xlink:href="#e" transform="matrix(1,0,0,1,-128.00956118515774,365.3333332651531) translate(107.35802469135801 46.5486111111111)"/><use xlink:href="#f" transform="matrix(1,0,0,1,-128.00956118515774,365.3333332651531) translate(42.19753086419756 81.21527777777776)"/><use xlink:href="#g" transform="matrix(1,0,0,1,-128.00956118515774,365.3333332651531) translate(24.86419753086423 115.88194444444441)"/><path d="M667 400c22.08 0 40 17.9 40 40s-17.92 40-40 40h-80c-22.1 0-40-17.9-40-40s17.9-40 40-40z" stroke="#4d9eff" stroke-width="4" fill-opacity="0"/><use xlink:href="#h" transform="matrix(1,0,0,1,551.9904388148423,404.999999931754) translate(49.320987654320994 40.6111111111111)"/><path d="M-1136.5 440H-1063.54" stroke="#4d9eff" stroke-width="3" fill="none"/><path d="M-1136.46 441.5h-1.63l.1-1.47-.05-1.53h1.6z" stroke="#4d9eff" stroke-width=".05" fill="#4d9eff"/><path d="M-1047.78 440l-14.26 4.63v-9.26z" stroke="#4d9eff" stroke-width="3" fill="#4d9eff"/><path d="M-1040.92 359.33a6 6 0 0 1 6-6h223.15a6 6 0 0 1 6 6v161.34a6 6 0 0 1-6 6h-223.15a6 6 0 0 1-6-6z" stroke="#4d9eff" stroke-width="4" fill-opacity="0"/><use xlink:href="#i" transform="matrix(1,0,0,1,-1028.9233852181565,365.3333332651531) translate(7.416666666666714 46.5486111111111)"/><use xlink:href="#j" transform="matrix(1,0,0,1,-1028.9233852181565,365.3333332651531) translate(73.86111111111113 46.5486111111111)"/><use xlink:href="#k" transform="matrix(1,0,0,1,-1028.9233852181565,365.3333332651531) translate(68.04320987654322 81.21527777777776)"/><use xlink:href="#l" transform="matrix(1,0,0,1,-1028.9233852181565,365.3333332651531) translate(12.351851851851904 115.88194444444441)"/><path d="M-923.35 349.83v-28.38" stroke="#4d9eff" stroke-width="3" fill="none"/><path d="M-921.85 351.33h-3v-1.53h3z" stroke="#4d9eff" stroke-width=".05" fill="#4d9eff"/><path d="M-923.35 305.7l4.64 14.25H-928z" stroke="#4d9eff" stroke-width="3" fill="#4d9eff"/><path d="M-1053.8 146a6 6 0 0 1 6-6h248.9a6 6 0 0 1 6 6v147.33a6 6 0 0 1-6 6h-248.9a6 6 0 0 1-6-6z" stroke="#4d9eff" stroke-width="3" fill="#fff"/><path d="M-1027.72 140v159.33M-818.98 140v159.33" stroke="#4d9eff" stroke-width="3" fill="none"/><use xlink:href="#m" transform="matrix(1,0,0,1,-1016.1925790380812,145) translate(36.145061728395085 28.77777777777779)"/><use xlink:href="#n" transform="matrix(1,0,0,1,-1016.1925790380812,145) translate(20.938271604938308 63.44444444444444)"/><use xlink:href="#o" transform="matrix(1,0,0,1,-1016.1925790380812,145) translate(40.87962962962966 98.1111111111111)"/><use xlink:href="#p" transform="matrix(1,0,0,1,-1016.1925790380812,145) translate(53.87962962962964 132.77777777777777)"/><path d="M-923.35 138.5" stroke="#4d9eff" stroke-width="3" fill="none"/><path stroke="#4d9eff" stroke-width=".05" fill="#4d9eff"/><path d="M-928.2 138.5l-14.27 4.63v-9.26z" stroke="#4d9eff" stroke-width="3" fill="#4d9eff"/><path d="M-802.27 440h73.88" stroke="#4d9eff" stroke-width="3" fill="none"/><path d="M-802.23 441.5h-1.54v-3h1.54z" stroke="#4d9eff" stroke-width=".05" fill="#4d9eff"/><path d="M-712.62 440l-14.27 4.63v-9.26z" stroke="#4d9eff" stroke-width="3" fill="#4d9eff"/><path d="M-705.77 386a6 6 0 0 1 6-6h148a6 6 0 0 1 6 6v108a6 6 0 0 1-6 6h-148a6 6 0 0 1-6-6z" stroke="#4d9eff" stroke-width="4" fill-opacity="0"/><use xlink:href="#q" transform="matrix(1,0,0,1,-693.769234172915,391.99999993181973) translate(11.907407407407426 35.1111111111111)"/><use xlink:href="#r" transform="matrix(1,0,0,1,-693.769234172915,391.99999993181973) translate(9.660493827160515 69.77777777777776)"/><path d="M-542.27 440h64.01" stroke="#4d9eff" stroke-width="3" fill="none"/><path d="M-542.23 441.5h-1.54v-3h1.54z" stroke="#4d9eff" stroke-width=".05" fill="#4d9eff"/><path d="M-462.5 440l-14.26 4.63v-9.26z" stroke="#4d9eff" stroke-width="3" fill="#4d9eff"/><path d="M-339.66 377.42v-85.68" stroke="#4d9eff" stroke-width="4" fill="none"/><path d="M-337.66 379.58l-.7-.1-1.3-.06-1.3.06-.7.1v-2.2h4z" stroke="#4d9eff" stroke-width=".05" fill="#4d9eff"/><path d="M-339.66 275.47l4.63 14.27h-9.27z" stroke="#4d9eff" stroke-width="4" fill="#4d9eff"/><path d="M-430 153a6 6 0 0 1 6-6h168.67a6 6 0 0 1 6 6v108a6 6 0 0 1-6 6H-424a6 6 0 0 1-6-6z" stroke="#4d9eff" stroke-width="4" fill="#fff"/><use xlink:href="#s" transform="matrix(1,0,0,1,-418,158.9999999659099) translate(24.77469135802471 35.1111111111111)"/><use xlink:href="#t" transform="matrix(1,0,0,1,-418,158.9999999659099) translate(39.62037037037039 69.77777777777776)"/><path d="M-339.66 502.58v52.68" stroke="#4d9eff" stroke-width="4" fill="none"/><path d="M-340.96 500.52l1.3.06 1.3-.06.7-.1v2.2h-4v-2.2z" stroke="#4d9eff" stroke-width=".05" fill="#4d9eff"/><path d="M-339.66 571.53l-4.64-14.27h9.27z" stroke="#4d9eff" stroke-width="4" fill="#4d9eff"/><path d="M-430 586a6 6 0 0 1 6-6h168.67a6 6 0 0 1 6 6v108a6 6 0 0 1-6 6H-424a6 6 0 0 1-6-6z" stroke="#4d9eff" stroke-width="4" fill-opacity="0"/><use xlink:href="#u" transform="matrix(1,0,0,1,-418,592) translate(17.23148148148151 53.1111111111111)"/><use xlink:href="#v" transform="matrix(1,0,0,1,-418,592) translate(75.7314814814815 53.1111111111111)"/><path d="M-245.33 207H-39a6 6 0 0 1 6 6v123.1" stroke="#4d9eff" stroke-width="4" fill="none"/><path d="M-245.28 209h-2.05v-4h2.05z" stroke="#4d9eff" stroke-width=".05" fill="#4d9eff"/><path d="M-33 352.36l-4.65-14.26h9.28z" stroke="#4d9eff" stroke-width="4" fill="#4d9eff"/><path d="M-245.33 640H-39a6 6 0 0 0 6-6v-90.1" stroke="#4d9eff" stroke-width="4" fill="none"/><path d="M-245.28 642h-2.05v-4h2.05z" stroke="#4d9eff" stroke-width=".05" fill="#4d9eff"/><path d="M-33 527.64l4.63 14.26h-9.28z" stroke="#4d9eff" stroke-width="4" fill="#4d9eff"/><path d="M70.5 440H162.23" stroke="#4d9eff" stroke-width="4" fill="none"/><path d="M70.54 442H68.5v-4h2.04z" stroke="#4d9eff" stroke-width=".05" fill="#4d9eff"/><path d="M178.52 440l-14.27 4.63v-9.26z" stroke="#4d9eff" stroke-width="4" fill="#4d9eff"/><path d="M187 359.33a6 6 0 0 1 6-6h248a6 6 0 0 1 6 6v161.34a6 6 0 0 1-6 6H193a6 6 0 0 1-6-6z" stroke="#4d9eff" stroke-width="4" fill-opacity="0"/><g><use xlink:href="#w" transform="matrix(1,0,0,1,198.99043881484226,365.3333332650874) translate(42.24691358024694 27.798611111111104)"/><use xlink:href="#x" transform="matrix(1,0,0,1,198.99043881484226,365.3333332650874) translate(169.75925925925924 27.798611111111104)"/><use xlink:href="#y" transform="matrix(1,0,0,1,198.99043881484226,365.3333332650874) translate(41.88580246913584 62.46527777777776)"/><use xlink:href="#z" transform="matrix(1,0,0,1,198.99043881484226,365.3333332650874) translate(33.29938271604941 97.13194444444441)"/><use xlink:href="#A" transform="matrix(1,0,0,1,198.99043881484226,365.3333332650874) translate(66.08024691358028 131.7986111111111)"/></g><path d="M451 440h71.25" stroke="#4d9eff" stroke-width="4" fill="none"/><path d="M451.04 442H449v-4h2.04z" stroke="#4d9eff" stroke-width=".05" fill="#4d9eff"/><path d="M538.52 440l-14.27 4.63v-9.26z" stroke="#4d9eff" stroke-width="4" fill="#4d9eff"/><path d="M-1053.8 586a6 6 0 0 1 6-6h248.9a6 6 0 0 1 6 6v108a6 6 0 0 1-6 6h-248.9a6 6 0 0 1-6-6z" stroke="#4d9eff" stroke-width="3" fill="#fff"/><path d="M-1027.72 580v120m208.74-120v120" stroke="#4d9eff" stroke-width="3" fill="none"/><g><use xlink:href="#B" transform="matrix(1,0,0,1,-1016.1925790782425,585) translate(63.3888888888889 43.44444444444444)"/><use xlink:href="#C" transform="matrix(1,0,0,1,-1016.1925790782425,585) translate(4.126543209876587 78.1111111111111)"/></g><path d="M-923.35 530.67v25.1" stroke="#4d9eff" stroke-width="4" fill="none"/><path d="M-921.35 530.72h-4v-2.05h4z" stroke="#4d9eff" stroke-width=".05" fill="#4d9eff"/><path d="M-923.35 572.03l-4.63-14.27h9.27z" stroke="#4d9eff" stroke-width="4" fill="#4d9eff"/><defs><path fill="#3a414a" d="M185-72C185 13 82 14 19-9v-63h16c2 37 21 58 61 58 46 0 69-51 31-71-42-23-106-23-106-90 0-69 87-70 148-56v56h-16l-7-32c-26-25-110-13-82 35 39 34 121 26 121 100" id="D"/><path fill="#3a414a" d="M78-41c-2 24 21 26 40 20C122 3 98 2 77 4 5 10 32-84 27-147H6v-11l25-7 21-38h26v38h35v18H78v106" id="E"/><path fill="#3a414a" d="M31-163c51-5 127-20 127 40v107l17 4V0h-61l-4-13C82 13 12 12 12-46c0-51 46-52 95-53 9-45-22-69-57-44l-7 20H31v-40zM62-47c0 30 26 34 45 23v-59c-28 0-45 6-45 36" id="F"/><path fill="#3a414a" d="M132-132c-21 0-37 9-50 16v100l26 4V0H10v-12l21-4v-133l-21-5v-11h69l2 34c17-18 35-41 71-40v61c-17 3-14-14-20-22" id="G"/><g id="a"><use transform="matrix(0.08024691358024688,0,0,0.08024691358024688,0,0)" xlink:href="#D"/><use transform="matrix(0.08024691358024688,0,0,0.08024691358024688,16.049382716049376,0)" xlink:href="#E"/><use transform="matrix(0.08024691358024688,0,0,0.08024691358024688,25.598765432098755,0)" xlink:href="#F"/><use transform="matrix(0.08024691358024688,0,0,0.08024691358024688,40.043209876543195,0)" xlink:href="#G"/><use transform="matrix(0.08024691358024688,0,0,0.08024691358024688,52.80246913580245,0)" xlink:href="#E"/></g><path fill="#3a414a" d="M155 0h-10L58-199v181l32 5V0H6v-13l30-5v-200l-30-5v-13h93l67 155 69-155h94v13l-30 5v200l30 5V0H212v-13l32-5v-181" id="H"/><path fill="#3a414a" d="M90-170c54-1 76 32 76 87 1 56-23 87-77 87-53 0-75-32-75-87s23-86 76-87zM89-14c28-2 26-38 26-69s3-69-26-69c-27 0-24 39-24 69s-3 66 24 69" id="I"/><path fill="#3a414a" d="M12-83c0-55 22-85 75-86 52-1 66 33 63 88H64c-1 37 6 64 44 63 14 0 28-4 39-6 3 28-28 25-55 27-57 4-80-31-80-86zm90-17c2-26 0-63-27-48-10 9-11 28-11 48h38" id="J"/><g id="b"><use transform="matrix(0.08024691358024688,0,0,0.08024691358024688,0,0)" xlink:href="#H"/><use transform="matrix(0.08024691358024688,0,0,0.08024691358024688,27.20370370370369,0)" xlink:href="#I"/><use transform="matrix(0.08024691358024688,0,0,0.08024691358024688,41.64814814814813,0)" xlink:href="#G"/><use transform="matrix(0.08024691358024688,0,0,0.08024691358024688,53.845679012345656,0)" xlink:href="#J"/></g><path fill="#3a414a" d="M75-13V0H4v-13l17-5 84-220h51l83 220 18 5V0H152v-13l28-5-23-61H67L45-18zm38-189L74-98h76" id="K"/><path fill="#3a414a" d="M109-18c15 0 31-2 42-6v14c-11 9-31 13-51 13-59 0-86-28-88-86-3-75 66-101 135-80v48h-13c-3-20-7-40-34-37-51 7-55 138 9 134" id="L"/><path fill="#3a414a" d="M73-51c-3 31 27 38 51 25v-123l-16-5v-11h66v149l17 4V0h-65l-2-14C94 9 22 18 22-44v-105l-17-5v-11h68v114" id="M"/><path fill="#3a414a" d="M81 5L15-149c-7-2-13-5-11-16h84v11l-20 5 39 91 35-91-19-5v-11h53c2 11-4 13-11 15C134-81 111-5 75 58 65 77 34 83 8 74V32h11c0 24 29 35 43 12 7-11 13-25 19-39" id="N"/><g id="c"><use transform="matrix(0.08024691358024688,0,0,0.08024691358024688,0,0)" xlink:href="#K"/><use transform="matrix(0.08024691358024688,0,0,0.08024691358024688,20.783950617283942,0)" xlink:href="#L"/><use transform="matrix(0.08024691358024688,0,0,0.08024691358024688,33.543209876543195,0)" xlink:href="#L"/><use transform="matrix(0.08024691358024688,0,0,0.08024691358024688,46.302469135802454,0)" xlink:href="#M"/><use transform="matrix(0.08024691358024688,0,0,0.08024691358024688,62.35185185185182,0)" xlink:href="#G"/><use transform="matrix(0.08024691358024688,0,0,0.08024691358024688,75.11111111111107,0)" xlink:href="#F"/><use transform="matrix(0.08024691358024688,0,0,0.08024691358024688,89.55555555555551,0)" xlink:href="#L"/><use transform="matrix(0.08024691358024688,0,0,0.08024691358024688,102.31481481481477,0)" xlink:href="#N"/></g><path fill="#3a414a" d="M186-86c2 69-46 103-114 85l1 62 25 4v12H5V65l18-4v-210l-18-5v-11h67v8c12-8 26-13 46-13 49 2 67 30 68 84zm-83 71c28 0 31-33 31-69 0-34-2-66-30-66-12 0-23 3-31 7v124c9 2 20 4 30 4" id="O"/><path fill="#3a414a" d="M127-114c3-31-26-38-50-25v123l15 4V0H10v-12l16-4v-218l-17-4v-12h68l-1 99c31-23 102-32 102 30v105l17 4V0h-82v-12l14-4v-98" id="P"/><g id="d"><use transform="matrix(0.08024691358024688,0,0,0.08024691358024688,0,0)" xlink:href="#K"/><use transform="matrix(0.08024691358024688,0,0,0.08024691358024688,20.783950617283942,0)" xlink:href="#O"/><use transform="matrix(0.08024691358024688,0,0,0.08024691358024688,36.833333333333314,0)" xlink:href="#F"/><use transform="matrix(0.08024691358024688,0,0,0.08024691358024688,51.27777777777776,0)" xlink:href="#L"/><use transform="matrix(0.08024691358024688,0,0,0.08024691358024688,64.03703703703701,0)" xlink:href="#P"/><use transform="matrix(0.08024691358024688,0,0,0.08024691358024688,80.08641975308639,0)" xlink:href="#J"/></g><path fill="#3a414a" d="M77-79l64-71-17-4v-11h63v11c-32 3-40 30-59 46l57 92 15 4V0h-80c-2-11 3-15 10-16L97-74 77-60v44l16 4V0H10v-12l16-4v-218l-17-4v-12h68v171" id="Q"/><g id="e"><use transform="matrix(0.08024691358024688,0,0,0.08024691358024688,0,0)" xlink:href="#D"/><use transform="matrix(0.08024691358024688,0,0,0.08024691358024688,16.049382716049376,0)" xlink:href="#O"/><use transform="matrix(0.08024691358024688,0,0,0.08024691358024688,32.09876543209875,0)" xlink:href="#F"/><use transform="matrix(0.08024691358024688,0,0,0.08024691358024688,46.543209876543195,0)" xlink:href="#G"/><use transform="matrix(0.08024691358024688,0,0,0.08024691358024688,59.30246913580243,0)" xlink:href="#Q"/></g><path fill="#3a414a" d="M108-230c-35 27-44 80-44 143s8 116 44 144v20C7 49-17-153 67-223c12-10 25-19 41-27v20" id="R"/><path fill="#3a414a" d="M92-112c43 4 61-13 61-54s-18-54-61-50v104zm118-54c0 63-50 78-118 74v74l39 5V0H8v-13l28-5v-200l-30-5v-13c88 3 205-20 204 70" id="S"/><path fill="#3a414a" d="M76-16l18 4V0H7v-12l18-4v-218l-17-4v-12h68v234" id="T"/><g id="f"><use transform="matrix(0.08024691358024688,0,0,0.08024691358024688,0,0)" xlink:href="#R"/><use transform="matrix(0.08024691358024688,0,0,0.08024691358024688,9.54938271604938,0)" xlink:href="#S"/><use transform="matrix(0.08024691358024688,0,0,0.08024691358024688,27.123456790123445,0)" xlink:href="#F"/><use transform="matrix(0.08024691358024688,0,0,0.08024691358024688,41.567901234567884,0)" xlink:href="#G"/><use transform="matrix(0.08024691358024688,0,0,0.08024691358024688,54.32716049382714,0)" xlink:href="#F"/><use transform="matrix(0.08024691358024688,0,0,0.08024691358024688,68.77160493827158,0)" xlink:href="#T"/><use transform="matrix(0.08024691358024688,0,0,0.08024691358024688,76.79629629629626,0)" xlink:href="#T"/><use transform="matrix(0.08024691358024688,0,0,0.08024691358024688,84.82098765432096,0)" xlink:href="#J"/><use transform="matrix(0.08024691358024688,0,0,0.08024691358024688,97.58024691358018,0)" xlink:href="#T"/></g><path fill="#3a414a" d="M102-142c-14-17-68-15-54 18 24 26 83 17 83 72 0 62-72 62-120 47v-45h12c4 23 16 37 43 37 35 0 39-37 9-46-31-9-65-19-64-61 0-52 59-55 108-45v43h-11" id="U"/><path fill="#3a414a" d="M77-16l18 4V0H8v-12l18-4v-133l-17-5v-11h68v149zM51-196c-16 0-27-10-27-27s10-27 27-27 27 11 27 27c0 17-10 27-27 27" id="V"/><path fill="#3a414a" d="M127-114c3-31-26-38-50-25v123l15 4V0H10v-12l16-4v-133l-16-5v-11h64l2 14c31-23 102-32 102 30v105l17 4V0h-82v-12l14-4v-98" id="W"/><path fill="#3a414a" d="M9 41c2-18 18-26 32-33C29 1 16-9 16-28l29-33c-21-9-31-25-31-51-2-56 61-65 111-53l39-20c13 12-9 24-14 36 35 54-17 114-90 92-17 34 27 28 56 28 36-1 61 12 60 46-2 46-39 62-91 62-38 0-71-6-76-38zm35-3c6 35 97 29 94-9-2-28-50-14-78-17-8 7-15 14-16 26zm20-150c0 22 4 40 23 40 20 0 24-17 24-40 0-24-4-40-24-40-19 0-23 17-23 40" id="X"/><path fill="#3a414a" d="M12-250C113-222 137-19 52 49 40 59 28 69 12 77V57C48 29 56-24 56-87s-9-116-44-143v-20" id="Y"/><g id="g"><use transform="matrix(0.08024691358024688,0,0,0.08024691358024688,0,0)" xlink:href="#S"/><use transform="matrix(0.08024691358024688,0,0,0.08024691358024688,17.574074074074066,0)" xlink:href="#G"/><use transform="matrix(0.08024691358024688,0,0,0.08024691358024688,29.771604938271594,0)" xlink:href="#I"/><use transform="matrix(0.08024691358024688,0,0,0.08024691358024688,44.216049382716044,0)" xlink:href="#L"/><use transform="matrix(0.08024691358024688,0,0,0.08024691358024688,56.97530864197529,0)" xlink:href="#J"/><use transform="matrix(0.08024691358024688,0,0,0.08024691358024688,69.73456790123454,0)" xlink:href="#U"/><use transform="matrix(0.08024691358024688,0,0,0.08024691358024688,80.96913580246911,0)" xlink:href="#U"/><use transform="matrix(0.08024691358024688,0,0,0.08024691358024688,92.20370370370367,0)" xlink:href="#V"/><use transform="matrix(0.08024691358024688,0,0,0.08024691358024688,100.22839506172835,0)" xlink:href="#W"/><use transform="matrix(0.08024691358024688,0,0,0.08024691358024688,116.27777777777773,0)" xlink:href="#X"/><use transform="matrix(0.08024691358024688,0,0,0.08024691358024688,130.72222222222217,0)" xlink:href="#Y"/></g><path fill="#3a414a" d="M6-13l30-5v-200l-30-5v-13h201v60h-16l-6-38-93-2v86h61l6-26h16v73h-16l-6-27H92v91l104-3 10-44h16l-4 66H6v-13" id="Z"/><path fill="#3a414a" d="M15-82c-4-69 47-101 113-83l-1-69-17-4v-12h68v234l18 4V0h-63l-4-9C77 23 5-9 15-82zm112-66c-43-16-64 17-61 65 2 33 3 67 32 67 12 0 22-3 29-8v-124" id="aa"/><g id="h"><use transform="matrix(0.08024691358024688,0,0,0.08024691358024688,0,0)" xlink:href="#Z"/><use transform="matrix(0.08024691358024688,0,0,0.08024691358024688,19.259259259259252,0)" xlink:href="#W"/><use transform="matrix(0.08024691358024688,0,0,0.08024691358024688,35.30864197530863,0)" xlink:href="#aa"/></g><path fill="#3a414a" d="M92-20c74 11 92-29 92-98 0-66-23-103-92-98v196zm150-99C242 9 136 6 6 0v-13l31-5v-200l-31-5v-13h112c81 0 124 34 124 117" id="ab"/><g id="i"><use transform="matrix(0.08024691358024688,0,0,0.08024691358024688,0,0)" xlink:href="#ab"/><use transform="matrix(0.08024691358024688,0,0,0.08024691358024688,20.783950617283942,0)" xlink:href="#F"/><use transform="matrix(0.08024691358024688,0,0,0.08024691358024688,35.22839506172838,0)" xlink:href="#E"/><use transform="matrix(0.08024691358024688,0,0,0.08024691358024688,44.77777777777776,0)" xlink:href="#F"/></g><g id="j"><use transform="matrix(0.08024691358024688,0,0,0.08024691358024688,0,0)" xlink:href="#S"/><use transform="matrix(0.08024691358024688,0,0,0.08024691358024688,17.574074074074066,0)" xlink:href="#G"/><use transform="matrix(0.08024691358024688,0,0,0.08024691358024688,29.771604938271594,0)" xlink:href="#I"/><use transform="matrix(0.08024691358024688,0,0,0.08024691358024688,44.216049382716044,0)" xlink:href="#L"/><use transform="matrix(0.08024691358024688,0,0,0.08024691358024688,56.97530864197529,0)" xlink:href="#J"/><use transform="matrix(0.08024691358024688,0,0,0.08024691358024688,69.73456790123454,0)" xlink:href="#U"/><use transform="matrix(0.08024691358024688,0,0,0.08024691358024688,80.96913580246911,0)" xlink:href="#U"/><use transform="matrix(0.08024691358024688,0,0,0.08024691358024688,92.20370370370367,0)" xlink:href="#V"/><use transform="matrix(0.08024691358024688,0,0,0.08024691358024688,100.22839506172835,0)" xlink:href="#W"/><use transform="matrix(0.08024691358024688,0,0,0.08024691358024688,116.27777777777773,0)" xlink:href="#X"/></g><path fill="#3a414a" d="M76-116c0 86 71 126 135 84l6-39h16l-1 60C138 21 18 1 18-115c0-117 106-141 210-112l1 57h-16l-5-34c-13-9-32-16-54-16-60 0-78 42-78 104" id="ac"/><path fill="#3a414a" d="M42-53c42-2 40 57 18 79C46 40 29 50 5 56V40c17-6 32-15 35-34-4-16-27-14-26-36 1-16 12-23 28-23" id="ad"/><g id="k"><use transform="matrix(0.08024691358024688,0,0,0.08024691358024688,0,0)" xlink:href="#R"/><use transform="matrix(0.08024691358024688,0,0,0.08024691358024688,9.54938271604938,0)" xlink:href="#S"/><use transform="matrix(0.08024691358024688,0,0,0.08024691358024688,27.123456790123445,0)" xlink:href="#ac"/><use transform="matrix(0.08024691358024688,0,0,0.08024691358024688,47.90740740740739,0)" xlink:href="#K"/><use transform="matrix(0.08024691358024688,0,0,0.08024691358024688,68.69135802469134,0)" xlink:href="#ad"/></g><path fill="#3a414a" d="M203-218l-32-5v-13h84v13l-30 5V0h-21L59-189v171l32 5V0H7v-13l30-5v-200l-30-5v-13h81L203-85v-133" id="ae"/><path fill="#3a414a" d="M126-114c3-31-27-37-49-25v123l15 4V0H10v-12l16-4v-133l-16-5v-11h64l2 14c24-16 81-33 96 3 30-24 105-39 105 27v105l17 4V0h-82v-12l14-4v-98c4-33-27-37-51-24 5 35 0 82 2 122l17 4V0h-83v-12l15-4v-98" id="af"/><path fill="#3a414a" d="M7 0v-8l76-141c-18 1-39-3-50 6l-6 27H14v-49h129v8L67-16c24 0 48 1 63-8l9-38h13l-5 62H7" id="ag"/><g id="l"><use transform="matrix(0.08024691358024688,0,0,0.08024691358024688,0,0)" xlink:href="#ae"/><use transform="matrix(0.08024691358024688,0,0,0.08024691358024688,20.783950617283942,0)" xlink:href="#I"/><use transform="matrix(0.08024691358024688,0,0,0.08024691358024688,35.22839506172838,0)" xlink:href="#G"/><use transform="matrix(0.08024691358024688,0,0,0.08024691358024688,47.98765432098762,0)" xlink:href="#af"/><use transform="matrix(0.08024691358024688,0,0,0.08024691358024688,71.98148148148145,0)" xlink:href="#F"/><use transform="matrix(0.08024691358024688,0,0,0.08024691358024688,86.4259259259259,0)" xlink:href="#T"/><use transform="matrix(0.08024691358024688,0,0,0.08024691358024688,94.45061728395058,0)" xlink:href="#V"/><use transform="matrix(0.08024691358024688,0,0,0.08024691358024688,102.47530864197526,0)" xlink:href="#ag"/><use transform="matrix(0.08024691358024688,0,0,0.08024691358024688,115.23456790123453,0)" xlink:href="#F"/><use transform="matrix(0.08024691358024688,0,0,0.08024691358024688,129.67901234567896,0)" xlink:href="#E"/><use transform="matrix(0.08024691358024688,0,0,0.08024691358024688,139.22839506172835,0)" xlink:href="#V"/><use transform="matrix(0.08024691358024688,0,0,0.08024691358024688,147.25308641975303,0)" xlink:href="#I"/><use transform="matrix(0.08024691358024688,0,0,0.08024691358024688,161.69753086419746,0)" xlink:href="#W"/><use transform="matrix(0.08024691358024688,0,0,0.08024691358024688,177.74691358024685,0)" xlink:href="#Y"/></g><g id="m"><use transform="matrix(0.08024691358024688,0,0,0.08024691358024688,0,0)" xlink:href="#S"/><use transform="matrix(0.08024691358024688,0,0,0.08024691358024688,17.574074074074066,0)" xlink:href="#G"/><use transform="matrix(0.08024691358024688,0,0,0.08024691358024688,30.33333333333332,0)" xlink:href="#V"/><use transform="matrix(0.08024691358024688,0,0,0.08024691358024688,38.35802469135801,0)" xlink:href="#W"/><use transform="matrix(0.08024691358024688,0,0,0.08024691358024688,54.4074074074074,0)" xlink:href="#L"/><use transform="matrix(0.08024691358024688,0,0,0.08024691358024688,67.16666666666664,0)" xlink:href="#V"/><use transform="matrix(0.08024691358024688,0,0,0.08024691358024688,75.19135802469133,0)" xlink:href="#O"/><use transform="matrix(0.08024691358024688,0,0,0.08024691358024688,91.2407407407407,0)" xlink:href="#F"/><use transform="matrix(0.08024691358024688,0,0,0.08024691358024688,105.68518518518515,0)" xlink:href="#T"/></g><g id="n"><use transform="matrix(0.08024691358024688,0,0,0.08024691358024688,0,0)" xlink:href="#ac"/><use transform="matrix(0.08024691358024688,0,0,0.08024691358024688,20.783950617283942,0)" xlink:href="#I"/><use transform="matrix(0.08024691358024688,0,0,0.08024691358024688,35.22839506172838,0)" xlink:href="#af"/><use transform="matrix(0.08024691358024688,0,0,0.08024691358024688,59.2222222222222,0)" xlink:href="#O"/><use transform="matrix(0.08024691358024688,0,0,0.08024691358024688,75.27160493827158,0)" xlink:href="#I"/><use transform="matrix(0.08024691358024688,0,0,0.08024691358024688,89.71604938271601,0)" xlink:href="#W"/><use transform="matrix(0.08024691358024688,0,0,0.08024691358024688,105.7654320987654,0)" xlink:href="#J"/><use transform="matrix(0.08024691358024688,0,0,0.08024691358024688,118.52469135802467,0)" xlink:href="#W"/><use transform="matrix(0.08024691358024688,0,0,0.08024691358024688,134.57407407407402,0)" xlink:href="#E"/></g><g id="o"><use transform="matrix(0.08024691358024688,0,0,0.08024691358024688,0,0)" xlink:href="#K"/><use transform="matrix(0.08024691358024688,0,0,0.08024691358024688,20.783950617283942,0)" xlink:href="#W"/><use transform="matrix(0.08024691358024688,0,0,0.08024691358024688,36.833333333333314,0)" xlink:href="#F"/><use transform="matrix(0.08024691358024688,0,0,0.08024691358024688,51.27777777777776,0)" xlink:href="#T"/><use transform="matrix(0.08024691358024688,0,0,0.08024691358024688,59.30246913580245,0)" xlink:href="#N"/><use transform="matrix(0.08024691358024688,0,0,0.08024691358024688,73.74691358024688,0)" xlink:href="#U"/><use transform="matrix(0.08024691358024688,0,0,0.08024691358024688,84.98148148148145,0)" xlink:href="#V"/><use transform="matrix(0.08024691358024688,0,0,0.08024691358024688,93.00617283950612,0)" xlink:href="#U"/></g><g id="p"><use transform="matrix(0.08024691358024688,0,0,0.08024691358024688,0,0)" xlink:href="#R"/><use transform="matrix(0.08024691358024688,0,0,0.08024691358024688,9.54938271604938,0)" xlink:href="#S"/><use transform="matrix(0.08024691358024688,0,0,0.08024691358024688,27.123456790123445,0)" xlink:href="#ac"/><use transform="matrix(0.08024691358024688,0,0,0.08024691358024688,47.90740740740739,0)" xlink:href="#K"/><use transform="matrix(0.08024691358024688,0,0,0.08024691358024688,68.69135802469134,0)" xlink:href="#Y"/></g><g id="q"><use transform="matrix(0.08024691358024688,0,0,0.08024691358024688,0,0)" xlink:href="#K"/><use transform="matrix(0.08024691358024688,0,0,0.08024691358024688,20.783950617283942,0)" xlink:href="#W"/><use transform="matrix(0.08024691358024688,0,0,0.08024691358024688,36.833333333333314,0)" xlink:href="#I"/><use transform="matrix(0.08024691358024688,0,0,0.08024691358024688,51.27777777777776,0)" xlink:href="#af"/><use transform="matrix(0.08024691358024688,0,0,0.08024691358024688,75.27160493827158,0)" xlink:href="#F"/><use transform="matrix(0.08024691358024688,0,0,0.08024691358024688,89.71604938271601,0)" xlink:href="#T"/><use transform="matrix(0.08024691358024688,0,0,0.08024691358024688,97.7407407407407,0)" xlink:href="#N"/></g><g id="r"><use transform="matrix(0.08024691358024688,0,0,0.08024691358024688,0,0)" xlink:href="#ab"/><use transform="matrix(0.08024691358024688,0,0,0.08024691358024688,20.783950617283942,0)" xlink:href="#J"/><use transform="matrix(0.08024691358024688,0,0,0.08024691358024688,33.543209876543195,0)" xlink:href="#E"/><use transform="matrix(0.08024691358024688,0,0,0.08024691358024688,43.092592592592574,0)" xlink:href="#J"/><use transform="matrix(0.08024691358024688,0,0,0.08024691358024688,55.851851851851826,0)" xlink:href="#L"/><use transform="matrix(0.08024691358024688,0,0,0.08024691358024688,68.61111111111109,0)" xlink:href="#E"/><use transform="matrix(0.08024691358024688,0,0,0.08024691358024688,78.16049382716047,0)" xlink:href="#V"/><use transform="matrix(0.08024691358024688,0,0,0.08024691358024688,86.18518518518515,0)" xlink:href="#I"/><use transform="matrix(0.08024691358024688,0,0,0.08024691358024688,100.62962962962959,0)" xlink:href="#W"/></g><path fill="#3a414a" d="M98-18l30 5V0H12v-13l30-5v-200l-30-5v-13h116v13l-30 5v200" id="ah"/><g id="s"><use transform="matrix(0.08024691358024688,0,0,0.08024691358024688,0,0)" xlink:href="#ah"/><use transform="matrix(0.08024691358024688,0,0,0.08024691358024688,11.234567901234563,0)" xlink:href="#U"/><use transform="matrix(0.08024691358024688,0,0,0.08024691358024688,22.469135802469125,0)" xlink:href="#I"/><use transform="matrix(0.08024691358024688,0,0,0.08024691358024688,36.91358024691357,0)" xlink:href="#T"/><use transform="matrix(0.08024691358024688,0,0,0.08024691358024688,44.93827160493825,0)" xlink:href="#F"/><use transform="matrix(0.08024691358024688,0,0,0.08024691358024688,59.382716049382694,0)" xlink:href="#E"/><use transform="matrix(0.08024691358024688,0,0,0.08024691358024688,68.93209876543207,0)" xlink:href="#V"/><use transform="matrix(0.08024691358024688,0,0,0.08024691358024688,76.95679012345676,0)" xlink:href="#I"/><use transform="matrix(0.08024691358024688,0,0,0.08024691358024688,91.4012345679012,0)" xlink:href="#W"/></g><path fill="#3a414a" d="M92-101v83l39 5V0H8v-13l28-5v-200l-30-5v-13h197v64h-17l-5-42c-27-3-59-2-89-2v96h57l6-30h15v80h-15l-6-31H92" id="ai"/><g id="t"><use transform="matrix(0.08024691358024688,0,0,0.08024691358024688,0,0)" xlink:href="#ai"/><use transform="matrix(0.08024691358024688,0,0,0.08024691358024688,17.574074074074066,0)" xlink:href="#I"/><use transform="matrix(0.08024691358024688,0,0,0.08024691358024688,32.018518518518505,0)" xlink:href="#G"/><use transform="matrix(0.08024691358024688,0,0,0.08024691358024688,44.21604938271603,0)" xlink:href="#J"/><use transform="matrix(0.08024691358024688,0,0,0.08024691358024688,56.97530864197529,0)" xlink:href="#U"/><use transform="matrix(0.08024691358024688,0,0,0.08024691358024688,68.20987654320984,0)" xlink:href="#E"/></g><path fill="#3a414a" d="M140-221c-55 0-64 47-64 103S8-14 140-14c56 0 64-48 64-104s-9-103-64-103zm0 225C61 4 18-36 18-118c0-81 41-120 122-120 80 0 122 39 122 120C262-36 219 4 140 4" id="aj"/><g id="u"><use transform="matrix(0.08024691358024688,0,0,0.08024691358024688,0,0)" xlink:href="#aj"/><use transform="matrix(0.08024691358024688,0,0,0.08024691358024688,22.469135802469125,0)" xlink:href="#W"/><use transform="matrix(0.08024691358024688,0,0,0.08024691358024688,38.518518518518505,0)" xlink:href="#J"/></g><path fill="#3a414a" d="M256-236v13l-22 5L143 5h-24L23-218l-19-5v-13h103v13l-25 5 66 154 62-154-23-5v-13h69" id="ak"/><g id="v"><use transform="matrix(0.08024691358024688,0,0,0.08024691358024688,0,0)" xlink:href="#D"/><use transform="matrix(0.08024691358024688,0,0,0.08024691358024688,16.049382716049376,0)" xlink:href="#ak"/><use transform="matrix(0.08024691358024688,0,0,0.08024691358024688,36.833333333333314,0)" xlink:href="#H"/></g><path fill="#3a414a" d="M168-150L102 4H81L12-149c-7-2-15-4-12-16h85v11l-20 5 42 94 38-94-19-5v-11h54v11" id="al"/><g id="w"><use transform="matrix(0.08024691358024688,0,0,0.08024691358024688,0,0)" xlink:href="#Z"/><use transform="matrix(0.08024691358024688,0,0,0.08024691358024688,19.259259259259252,0)" xlink:href="#al"/><use transform="matrix(0.08024691358024688,0,0,0.08024691358024688,33.703703703703695,0)" xlink:href="#I"/><use transform="matrix(0.08024691358024688,0,0,0.08024691358024688,48.14814814814814,0)" xlink:href="#T"/><use transform="matrix(0.08024691358024688,0,0,0.08024691358024688,56.17283950617283,0)" xlink:href="#M"/><use transform="matrix(0.08024691358024688,0,0,0.08024691358024688,72.2222222222222,0)" xlink:href="#E"/><use transform="matrix(0.08024691358024688,0,0,0.08024691358024688,81.77160493827158,0)" xlink:href="#V"/><use transform="matrix(0.08024691358024688,0,0,0.08024691358024688,89.79629629629626,0)" xlink:href="#I"/><use transform="matrix(0.08024691358024688,0,0,0.08024691358024688,104.2407407407407,0)" xlink:href="#W"/></g><path fill="#3a414a" d="M120-239c38 0 63 14 63 50 0 35-25 46-51 57l67 60c7-16 9-34 10-54l-19-5v-11h84v11l-20 5c-6 27-17 55-31 76 19 14 29 37 59 39V0h-67l-21-19C148 15 17 19 21-63c2-40 26-57 55-68-12-15-23-31-23-57 0-36 27-51 67-51zM92-114c-35 18-32 99 24 99 26 0 46-9 60-21zm28-108c-37 2-21 62-4 74 26-3 34-71 4-74" id="am"/><use transform="matrix(0.08024691358024688,0,0,0.08024691358024688,0,0)" xlink:href="#am" id="x"/><g id="y"><use transform="matrix(0.08024691358024688,0,0,0.08024691358024688,0,0)" xlink:href="#ac"/><use transform="matrix(0.08024691358024688,0,0,0.08024691358024688,20.783950617283942,0)" xlink:href="#I"/><use transform="matrix(0.08024691358024688,0,0,0.08024691358024688,35.22839506172838,0)" xlink:href="#af"/><use transform="matrix(0.08024691358024688,0,0,0.08024691358024688,59.2222222222222,0)" xlink:href="#O"/><use transform="matrix(0.08024691358024688,0,0,0.08024691358024688,75.27160493827158,0)" xlink:href="#F"/><use transform="matrix(0.08024691358024688,0,0,0.08024691358024688,89.71604938271601,0)" xlink:href="#G"/><use transform="matrix(0.08024691358024688,0,0,0.08024691358024688,102.47530864197526,0)" xlink:href="#V"/><use transform="matrix(0.08024691358024688,0,0,0.08024691358024688,110.49999999999996,0)" xlink:href="#U"/><use transform="matrix(0.08024691358024688,0,0,0.08024691358024688,121.73456790123451,0)" xlink:href="#I"/><use transform="matrix(0.08024691358024688,0,0,0.08024691358024688,136.17901234567896,0)" xlink:href="#W"/></g><path fill="#3a414a" d="M107-230c-31-13-29 30-29 65h34v18H78v131l27 4V0H10v-12l18-4v-131H3v-12l25-7c-8-66 31-98 95-84v39h-11" id="an"/><g id="z"><use transform="matrix(0.08024691358024688,0,0,0.08024691358024688,0,0)" xlink:href="#R"/><use transform="matrix(0.08024691358024688,0,0,0.08024691358024688,9.54938271604938,0)" xlink:href="#S"/><use transform="matrix(0.08024691358024688,0,0,0.08024691358024688,27.123456790123445,0)" xlink:href="#J"/><use transform="matrix(0.08024691358024688,0,0,0.08024691358024688,39.8827160493827,0)" xlink:href="#G"/><use transform="matrix(0.08024691358024688,0,0,0.08024691358024688,52.64197530864195,0)" xlink:href="#an"/><use transform="matrix(0.08024691358024688,0,0,0.08024691358024688,62.19135802469133,0)" xlink:href="#I"/><use transform="matrix(0.08024691358024688,0,0,0.08024691358024688,76.63580246913577,0)" xlink:href="#G"/><use transform="matrix(0.08024691358024688,0,0,0.08024691358024688,89.39506172839502,0)" xlink:href="#af"/><use transform="matrix(0.08024691358024688,0,0,0.08024691358024688,113.38888888888884,0)" xlink:href="#F"/><use transform="matrix(0.08024691358024688,0,0,0.08024691358024688,127.83333333333329,0)" xlink:href="#W"/><use transform="matrix(0.08024691358024688,0,0,0.08024691358024688,143.88271604938265,0)" xlink:href="#L"/><use transform="matrix(0.08024691358024688,0,0,0.08024691358024688,156.64197530864192,0)" xlink:href="#J"/></g><g id="A"><use transform="matrix(0.08024691358024688,0,0,0.08024691358024688,0,0)" xlink:href="#H"/><use transform="matrix(0.08024691358024688,0,0,0.08024691358024688,27.20370370370369,0)" xlink:href="#J"/><use transform="matrix(0.08024691358024688,0,0,0.08024691358024688,39.96296296296295,0)" xlink:href="#E"/><use transform="matrix(0.08024691358024688,0,0,0.08024691358024688,49.51234567901233,0)" xlink:href="#G"/><use transform="matrix(0.08024691358024688,0,0,0.08024691358024688,62.27160493827158,0)" xlink:href="#V"/><use transform="matrix(0.08024691358024688,0,0,0.08024691358024688,70.29629629629626,0)" xlink:href="#L"/><use transform="matrix(0.08024691358024688,0,0,0.08024691358024688,83.05555555555553,0)" xlink:href="#U"/><use transform="matrix(0.08024691358024688,0,0,0.08024691358024688,94.29012345679007,0)" xlink:href="#Y"/></g><g id="B"><use transform="matrix(0.08024691358024688,0,0,0.08024691358024688,0,0)" xlink:href="#ab"/><use transform="matrix(0.08024691358024688,0,0,0.08024691358024688,20.783950617283942,0)" xlink:href="#F"/><use transform="matrix(0.08024691358024688,0,0,0.08024691358024688,35.22839506172838,0)" xlink:href="#E"/><use transform="matrix(0.08024691358024688,0,0,0.08024691358024688,44.77777777777776,0)" xlink:href="#F"/></g><g id="C"><use transform="matrix(0.08024691358024688,0,0,0.08024691358024688,0,0)" xlink:href="#ae"/><use transform="matrix(0.08024691358024688,0,0,0.08024691358024688,20.783950617283942,0)" xlink:href="#I"/><use transform="matrix(0.08024691358024688,0,0,0.08024691358024688,35.22839506172838,0)" xlink:href="#G"/><use transform="matrix(0.08024691358024688,0,0,0.08024691358024688,47.98765432098762,0)" xlink:href="#af"/><use transform="matrix(0.08024691358024688,0,0,0.08024691358024688,71.98148148148145,0)" xlink:href="#F"/><use transform="matrix(0.08024691358024688,0,0,0.08024691358024688,86.4259259259259,0)" xlink:href="#T"/><use transform="matrix(0.08024691358024688,0,0,0.08024691358024688,94.45061728395058,0)" xlink:href="#V"/><use transform="matrix(0.08024691358024688,0,0,0.08024691358024688,102.47530864197526,0)" xlink:href="#ag"/><use transform="matrix(0.08024691358024688,0,0,0.08024691358024688,115.23456790123453,0)" xlink:href="#F"/><use transform="matrix(0.08024691358024688,0,0,0.08024691358024688,129.67901234567896,0)" xlink:href="#E"/><use transform="matrix(0.08024691358024688,0,0,0.08024691358024688,139.22839506172835,0)" xlink:href="#V"/><use transform="matrix(0.08024691358024688,0,0,0.08024691358024688,147.25308641975303,0)" xlink:href="#I"/><use transform="matrix(0.08024691358024688,0,0,0.08024691358024688,161.69753086419746,0)" xlink:href="#W"/></g></defs></g></svg>