<svg xmlns="http://www.w3.org/2000/svg" xmlns:xlink="http://www.w3.org/1999/xlink" xmlns:lucid="lucid" width="987.85" height="1557.33"><g transform="translate(1141.5 302)" lucid:page-tab-id="0_0"><path d="M-602-280c22.1 0 40 17.9 40 40s-17.9 40-40 40h-80c-22.1 0-40-17.9-40-40s17.9-40 40-40z" stroke="#4d9eff" stroke-width="4" fill-opacity="0"/><use xlink:href="#a" transform="matrix(1,0,0,1,-716.9999499547591,-275) translate(34.2364814814815 43.347222222222214)"/><path d="M-645.03 396.02a11.97 11.97 0 0 1 10.73 0l108.94 54.62a3 3 0 0 1 0 5.38l-108.94 54.62a11.97 11.97 0 0 1-10.73 0l-108.93-54.62a3 3 0 0 1 0-5.38z" stroke="#4d9eff" stroke-width="4" fill="#fff"/><use xlink:href="#b" transform="matrix(1,0,0,1,-754.3269256296862,398.33333333333326) translate(81.70253086419756 36.8611111111111)"/><use xlink:href="#c" transform="matrix(1,0,0,1,-754.3269256296862,398.33333333333326) translate(56.1253703703704 71.52777777777774)"/><path d="M-800 619.33a6 6 0 0 1 6-6h308a6 6 0 0 1 6 6v147.34a6 6 0 0 1-6 6h-308a6 6 0 0 1-6-6z" stroke="#4d9eff" stroke-width="3" fill-opacity="0"/><use xlink:href="#d" transform="matrix(1,0,0,1,-795,618.3333333333333) translate(60.54320987654327 62.38888888888888)"/><use xlink:href="#e" transform="matrix(1,0,0,1,-795,618.3333333333333) translate(168.30864197530863 62.38888888888888)"/><use xlink:href="#f" transform="matrix(1,0,0,1,-795,618.3333333333333) translate(18.716049382716108 99.7222222222222)"/><use xlink:href="#g" transform="matrix(1,0,0,1,-795,618.3333333333333) translate(140.22222222222223 99.7222222222222)"/><path d="M-599.66 1153.33c22.1 0 40 17.9 40 40s-17.9 40-40 40h-80c-22.1 0-40-17.9-40-40s17.9-40 40-40z" stroke="#4d9eff" stroke-width="4" fill-opacity="0"/><use xlink:href="#h" transform="matrix(1,0,0,1,-714.6634628148431,1158.3333333333333) translate(43.40006172839507 41.569444444444436)"/><path d="M-760-94a6 6 0 0 1 6-6h228a6 6 0 0 1 6 6V67.33a6 6 0 0 1-6 6h-228a6 6 0 0 1-6-6z" stroke="#4d9eff" stroke-width="4" fill-opacity="0"/><use xlink:href="#i" transform="matrix(1,0,0,1,-748,-88) translate(1.8333333333333712 43.638888888888886)"/><use xlink:href="#j" transform="matrix(1,0,0,1,-748,-88) translate(73.3888888888889 43.638888888888886)"/><use xlink:href="#k" transform="matrix(1,0,0,1,-748,-88) translate(67.12345679012347 80.9722222222222)"/><use xlink:href="#l" transform="matrix(1,0,0,1,-748,-88) translate(7.148148148148181 118.30555555555553)"/><path d="M-1120-68.33a6 6 0 0 1 6-6h268.92a6 6 0 0 1 6 6v110a6 6 0 0 1-6 6H-1114a6 6 0 0 1-6-6z" stroke="#4d9eff" stroke-width="3" fill="#fff"/><path d="M-1091.9-74.33v122m224.73-122v122" stroke="#4d9eff" stroke-width="3" fill="none"/><use xlink:href="#m" transform="matrix(1,0,0,1,-1079.8845768534677,-69.33333333333331) translate(39.271604938271636 24.8888888888889)"/><use xlink:href="#n" transform="matrix(1,0,0,1,-1079.8845768534677,-69.33333333333331) translate(22.895061728395092 62.222222222222214)"/><use xlink:href="#o" transform="matrix(1,0,0,1,-1079.8845768534677,-69.33333333333331) translate(44.3703703703704 99.55555555555554)"/><path d="M-979.54-75.83" stroke="#4d9eff" stroke-width="3" fill="none"/><path stroke="#4d9eff" stroke-width=".05" fill="#4d9eff"/><path d="M-984.4-75.83l-14.26 4.63v-9.27z" stroke="#4d9eff" stroke-width="3" fill="#4d9eff"/><path d="M-760 179.33a6 6 0 0 1 6-6h228a6 6 0 0 1 6 6v108a6 6 0 0 1-6 6h-228a6 6 0 0 1-6-6z" stroke="#4d9eff" stroke-width="4" fill-opacity="0"/><use xlink:href="#p" transform="matrix(1,0,0,1,-748,185.33333333333326) translate(38.96296296296299 34.444444444444436)"/><use xlink:href="#q" transform="matrix(1,0,0,1,-748,185.33333333333326) translate(36.19753086419756 77.11111111111109)"/><path d="M-420 399.33a6 6 0 0 1 6-6h188a6 6 0 0 1 6 6v108a6 6 0 0 1-6 6h-188a6 6 0 0 1-6-6z" stroke="#4d9eff" stroke-width="4" fill="#fff"/><use xlink:href="#r" transform="matrix(1,0,0,1,-408,405.33333333333326) translate(21.87654320987656 34.444444444444436)"/><use xlink:href="#s" transform="matrix(1,0,0,1,-408,405.33333333333326) translate(40.14814814814817 77.11111111111109)"/><path d="M-1040 399.33a6 6 0 0 1 6-6h168.67a6 6 0 0 1 6 6v108a6 6 0 0 1-6 6H-1034a6 6 0 0 1-6-6z" stroke="#4d9eff" stroke-width="4" fill-opacity="0"/><use xlink:href="#t" transform="matrix(1,0,0,1,-1028,405.33333333333326) translate(7.805555555555586 53.66666666666666)"/><use xlink:href="#u" transform="matrix(1,0,0,1,-1028,405.33333333333326) translate(75.30555555555556 53.66666666666666)"/><path d="M-800 875a6 6 0 0 1 6-6h308a6 6 0 0 1 6 6v182.67a6 6 0 0 1-6 6h-308a6 6 0 0 1-6-6z" stroke="#4d9eff" stroke-width="4" fill-opacity="0"/><use xlink:href="#v" transform="matrix(1,0,0,1,-788,880.9999999658442) translate(60.59259259259264 32.01041666666666)"/><use xlink:href="#w" transform="matrix(1,0,0,1,-788,880.9999999658442) translate(207.7222222222222 32.01041666666666)"/><use xlink:href="#x" transform="matrix(1,0,0,1,-788,880.9999999658442) translate(60.17592592592597 72.01041666666664)"/><use xlink:href="#y" transform="matrix(1,0,0,1,-788,880.9999999658442) translate(50.26851851851855 112.01041666666663)"/><use xlink:href="#z" transform="matrix(1,0,0,1,-788,880.9999999658442) translate(88.09259259259261 152.01041666666663)"/><path d="M-440.92-74a6 6 0 0 1 6-6h253.77a6 6 0 0 1 6 6V34a6 6 0 0 1-6 6h-253.77a6 6 0 0 1-6-6z" stroke="#4d9eff" stroke-width="3" fill="#fff"/><path d="M-414.35-80V40m212.62-120V40" stroke="#4d9eff" stroke-width="3" fill="none"/><use xlink:href="#A" transform="matrix(1,0,0,1,-402.7022309063808,-75) translate(63.11111111111112 42.55555555555556)"/><use xlink:href="#B" transform="matrix(1,0,0,1,-402.7022309063808,-75) translate(-0.7098765432098446 79.88888888888889)"/><path d="M-642-196v71.26" stroke="#4d9eff" stroke-width="4" fill="none"/><path d="M-640-195.95h-4V-198h4z" stroke="#4d9eff" stroke-width=".05" fill="#4d9eff"/><path d="M-642-108.47l-4.63-14.27h9.26z" stroke="#4d9eff" stroke-width="4" fill="#4d9eff"/><path d="M-764-13.33H-814.84" stroke="#4d9eff" stroke-width="4" fill="none"/><path d="M-762-11.33h-2.05v-4h2.05z" stroke="#4d9eff" stroke-width=".05" fill="#4d9eff"/><path d="M-831.1-13.33l14.26-4.64v9.27z" stroke="#4d9eff" stroke-width="4" fill="#4d9eff"/><path d="M-516-13.33h50.84" stroke="#4d9eff" stroke-width="4" fill="none"/><path d="M-515.95-11.33H-518v-4h2.05z" stroke="#4d9eff" stroke-width=".05" fill="#4d9eff"/><path d="M-448.9-13.33l-14.26 4.63v-9.27z" stroke="#4d9eff" stroke-width="4" fill="#4d9eff"/><path d="M-640 77.33v71.27" stroke="#4d9eff" stroke-width="4" fill="none"/><path d="M-638 77.39l-4-.02v-2.05h4z" stroke="#4d9eff" stroke-width=".05" fill="#4d9eff"/><path d="M-640 164.86l-4.63-14.27h9.26z" stroke="#4d9eff" stroke-width="4" fill="#4d9eff"/><path d="M-640 297.33v72.7" stroke="#4d9eff" stroke-width="4" fill="none"/><path d="M-638 297.4h-4v-2.07h4z" stroke="#4d9eff" stroke-width=".05" fill="#4d9eff"/><path d="M-640 386.3l-4.63-14.27h9.26z" stroke="#4d9eff" stroke-width="4" fill="#4d9eff"/><path d="M-519.7 453.33h74.96" stroke="#4d9eff" stroke-width="4" fill="none"/><path d="M-519.64 455.33h-2.48l.3-.9.13-1.1-.1-1.1-.32-.9h2.48z" stroke="#4d9eff" stroke-width=".05" fill="#4d9eff"/><path d="M-428.47 453.33l-14.27 4.64v-9.27z" stroke="#4d9eff" stroke-width="4" fill="#4d9eff"/><path d="M-759.64 453.33h-74.95" stroke="#4d9eff" stroke-width="4" fill="none"/><path d="M-757.5 452.23l-.14 1.1.13 1.1.3.9h-2.5v-4h2.5z" stroke="#4d9eff" stroke-width=".05" fill="#4d9eff"/><path d="M-850.86 453.33l14.27-4.63v9.27z" stroke="#4d9eff" stroke-width="4" fill="#4d9eff"/><path d="M-640 776.17v68.1" stroke="#4d9eff" stroke-width="4" fill="none"/><path d="M-638 776.22h-4v-2.05h4z" stroke="#4d9eff" stroke-width=".05" fill="#4d9eff"/><path d="M-640 860.53l-4.63-14.27h9.26z" stroke="#4d9eff" stroke-width="4" fill="#4d9eff"/><path d="M-640 1067.67v40.66a.17.17 0 0 0 .17.17.17.17 0 0 1 .17.17v19.92" stroke="#4d9eff" stroke-width="4" fill="none"/><path d="M-638 1067.72h-4v-2.05h4z" stroke="#4d9eff" stroke-width=".05" fill="#4d9eff"/><path d="M-639.66 1144.86l-4.64-14.26h9.27z" stroke="#4d9eff" stroke-width="4" fill="#4d9eff"/><path d="M-320 517.33V687.5a6 6 0 0 1-6 6h-129.76" stroke="#4d9eff" stroke-width="4" fill="none"/><path d="M-318 517.4h-4v-2.07h4z" stroke="#4d9eff" stroke-width=".05" fill="#4d9eff"/><path d="M-472.03 693.5l14.27-4.64v9.27z" stroke="#4d9eff" stroke-width="4" fill="#4d9eff"/><path d="M-949.66 517.33v160.5a6 6 0 0 0 6 6h119.42" stroke="#4d9eff" stroke-width="4" fill="none"/><path d="M-947.66 517.4h-4v-2.07h4z" stroke="#4d9eff" stroke-width=".05" fill="#4d9eff"/><path d="M-807.97 683.85l-14.27 4.63v-9.27z" stroke="#4d9eff" stroke-width="4" fill="#4d9eff"/><defs><path fill="#3a414a" d="M185-72C185 13 82 14 19-9v-63h16c2 37 21 58 61 58 46 0 69-51 31-71-42-23-106-23-106-90 0-69 87-70 148-56v56h-16l-7-32c-26-25-110-13-82 35 39 34 121 26 121 100" id="C"/><path fill="#3a414a" d="M78-41c-2 24 21 26 40 20C122 3 98 2 77 4 5 10 32-84 27-147H6v-11l25-7 21-38h26v38h35v18H78v106" id="D"/><path fill="#3a414a" d="M31-163c51-5 127-20 127 40v107l17 4V0h-61l-4-13C82 13 12 12 12-46c0-51 46-52 95-53 9-45-22-69-57-44l-7 20H31v-40zM62-47c0 30 26 34 45 23v-59c-28 0-45 6-45 36" id="E"/><path fill="#3a414a" d="M132-132c-21 0-37 9-50 16v100l26 4V0H10v-12l21-4v-133l-21-5v-11h69l2 34c17-18 35-41 71-40v61c-17 3-14-14-20-22" id="F"/><g id="a"><use transform="matrix(0.10493827160493824,0,0,0.10493827160493824,0,0)" xlink:href="#C"/><use transform="matrix(0.10493827160493824,0,0,0.10493827160493824,20.987654320987648,0)" xlink:href="#D"/><use transform="matrix(0.10493827160493824,0,0,0.10493827160493824,33.475308641975296,0)" xlink:href="#E"/><use transform="matrix(0.10493827160493824,0,0,0.10493827160493824,52.364197530864175,0)" xlink:href="#F"/><use transform="matrix(0.10493827160493824,0,0,0.10493827160493824,69.04938271604935,0)" xlink:href="#D"/></g><path fill="#3a414a" d="M155 0h-10L58-199v181l32 5V0H6v-13l30-5v-200l-30-5v-13h93l67 155 69-155h94v13l-30 5v200l30 5V0H212v-13l32-5v-181" id="G"/><path fill="#3a414a" d="M90-170c54-1 76 32 76 87 1 56-23 87-77 87-53 0-75-32-75-87s23-86 76-87zM89-14c28-2 26-38 26-69s3-69-26-69c-27 0-24 39-24 69s-3 66 24 69" id="H"/><path fill="#3a414a" d="M12-83c0-55 22-85 75-86 52-1 66 33 63 88H64c-1 37 6 64 44 63 14 0 28-4 39-6 3 28-28 25-55 27-57 4-80-31-80-86zm90-17c2-26 0-63-27-48-10 9-11 28-11 48h38" id="I"/><g id="b"><use transform="matrix(0.08024691358024688,0,0,0.08024691358024688,0,0)" xlink:href="#G"/><use transform="matrix(0.08024691358024688,0,0,0.08024691358024688,27.20370370370369,0)" xlink:href="#H"/><use transform="matrix(0.08024691358024688,0,0,0.08024691358024688,41.64814814814813,0)" xlink:href="#F"/><use transform="matrix(0.08024691358024688,0,0,0.08024691358024688,53.845679012345656,0)" xlink:href="#I"/></g><path fill="#3a414a" d="M75-13V0H4v-13l17-5 84-220h51l83 220 18 5V0H152v-13l28-5-23-61H67L45-18zm38-189L74-98h76" id="J"/><path fill="#3a414a" d="M109-18c15 0 31-2 42-6v14c-11 9-31 13-51 13-59 0-86-28-88-86-3-75 66-101 135-80v48h-13c-3-20-7-40-34-37-51 7-55 138 9 134" id="K"/><path fill="#3a414a" d="M73-51c-3 31 27 38 51 25v-123l-16-5v-11h66v149l17 4V0h-65l-2-14C94 9 22 18 22-44v-105l-17-5v-11h68v114" id="L"/><path fill="#3a414a" d="M81 5L15-149c-7-2-13-5-11-16h84v11l-20 5 39 91 35-91-19-5v-11h53c2 11-4 13-11 15C134-81 111-5 75 58 65 77 34 83 8 74V32h11c0 24 29 35 43 12 7-11 13-25 19-39" id="M"/><g id="c"><use transform="matrix(0.08024691358024688,0,0,0.08024691358024688,0,0)" xlink:href="#J"/><use transform="matrix(0.08024691358024688,0,0,0.08024691358024688,20.783950617283942,0)" xlink:href="#K"/><use transform="matrix(0.08024691358024688,0,0,0.08024691358024688,33.543209876543195,0)" xlink:href="#K"/><use transform="matrix(0.08024691358024688,0,0,0.08024691358024688,46.302469135802454,0)" xlink:href="#L"/><use transform="matrix(0.08024691358024688,0,0,0.08024691358024688,62.35185185185182,0)" xlink:href="#F"/><use transform="matrix(0.08024691358024688,0,0,0.08024691358024688,75.11111111111107,0)" xlink:href="#E"/><use transform="matrix(0.08024691358024688,0,0,0.08024691358024688,89.55555555555551,0)" xlink:href="#K"/><use transform="matrix(0.08024691358024688,0,0,0.08024691358024688,102.31481481481477,0)" xlink:href="#M"/></g><path fill="#3a414a" d="M186-86c2 69-46 103-114 85l1 62 25 4v12H5V65l18-4v-210l-18-5v-11h67v8c12-8 26-13 46-13 49 2 67 30 68 84zm-83 71c28 0 31-33 31-69 0-34-2-66-30-66-12 0-23 3-31 7v124c9 2 20 4 30 4" id="N"/><path fill="#3a414a" d="M127-114c3-31-26-38-50-25v123l15 4V0H10v-12l16-4v-218l-17-4v-12h68l-1 99c31-23 102-32 102 30v105l17 4V0h-82v-12l14-4v-98" id="O"/><g id="d"><use transform="matrix(0.0864197530864197,0,0,0.0864197530864197,0,0)" xlink:href="#J"/><use transform="matrix(0.0864197530864197,0,0,0.0864197530864197,22.382716049382704,0)" xlink:href="#N"/><use transform="matrix(0.0864197530864197,0,0,0.0864197530864197,39.66666666666664,0)" xlink:href="#E"/><use transform="matrix(0.0864197530864197,0,0,0.0864197530864197,55.222222222222186,0)" xlink:href="#K"/><use transform="matrix(0.0864197530864197,0,0,0.0864197530864197,68.96296296296292,0)" xlink:href="#O"/><use transform="matrix(0.0864197530864197,0,0,0.0864197530864197,86.24691358024685,0)" xlink:href="#I"/></g><path fill="#3a414a" d="M77-79l64-71-17-4v-11h63v11c-32 3-40 30-59 46l57 92 15 4V0h-80c-2-11 3-15 10-16L97-74 77-60v44l16 4V0H10v-12l16-4v-218l-17-4v-12h68v171" id="P"/><g id="e"><use transform="matrix(0.0864197530864197,0,0,0.0864197530864197,0,0)" xlink:href="#C"/><use transform="matrix(0.0864197530864197,0,0,0.0864197530864197,17.283950617283942,0)" xlink:href="#N"/><use transform="matrix(0.0864197530864197,0,0,0.0864197530864197,34.567901234567884,0)" xlink:href="#E"/><use transform="matrix(0.0864197530864197,0,0,0.0864197530864197,50.12345679012343,0)" xlink:href="#F"/><use transform="matrix(0.0864197530864197,0,0,0.0864197530864197,63.86419753086416,0)" xlink:href="#P"/></g><path fill="#3a414a" d="M108-230c-35 27-44 80-44 143s8 116 44 144v20C7 49-17-153 67-223c12-10 25-19 41-27v20" id="Q"/><path fill="#3a414a" d="M92-112c43 4 61-13 61-54s-18-54-61-50v104zm118-54c0 63-50 78-118 74v74l39 5V0H8v-13l28-5v-200l-30-5v-13c88 3 205-20 204 70" id="R"/><path fill="#3a414a" d="M76-16l18 4V0H7v-12l18-4v-218l-17-4v-12h68v234" id="S"/><g id="f"><use transform="matrix(0.0864197530864197,0,0,0.0864197530864197,0,0)" xlink:href="#Q"/><use transform="matrix(0.0864197530864197,0,0,0.0864197530864197,10.283950617283946,0)" xlink:href="#R"/><use transform="matrix(0.0864197530864197,0,0,0.0864197530864197,29.209876543209862,0)" xlink:href="#E"/><use transform="matrix(0.0864197530864197,0,0,0.0864197530864197,44.76543209876541,0)" xlink:href="#F"/><use transform="matrix(0.0864197530864197,0,0,0.0864197530864197,58.50617283950614,0)" xlink:href="#E"/><use transform="matrix(0.0864197530864197,0,0,0.0864197530864197,74.06172839506169,0)" xlink:href="#S"/><use transform="matrix(0.0864197530864197,0,0,0.0864197530864197,82.70370370370367,0)" xlink:href="#S"/><use transform="matrix(0.0864197530864197,0,0,0.0864197530864197,91.34567901234566,0)" xlink:href="#I"/><use transform="matrix(0.0864197530864197,0,0,0.0864197530864197,105.08641975308639,0)" xlink:href="#S"/></g><path fill="#3a414a" d="M102-142c-14-17-68-15-54 18 24 26 83 17 83 72 0 62-72 62-120 47v-45h12c4 23 16 37 43 37 35 0 39-37 9-46-31-9-65-19-64-61 0-52 59-55 108-45v43h-11" id="T"/><path fill="#3a414a" d="M77-16l18 4V0H8v-12l18-4v-133l-17-5v-11h68v149zM51-196c-16 0-27-10-27-27s10-27 27-27 27 11 27 27c0 17-10 27-27 27" id="U"/><path fill="#3a414a" d="M127-114c3-31-26-38-50-25v123l15 4V0H10v-12l16-4v-133l-16-5v-11h64l2 14c31-23 102-32 102 30v105l17 4V0h-82v-12l14-4v-98" id="V"/><path fill="#3a414a" d="M9 41c2-18 18-26 32-33C29 1 16-9 16-28l29-33c-21-9-31-25-31-51-2-56 61-65 111-53l39-20c13 12-9 24-14 36 35 54-17 114-90 92-17 34 27 28 56 28 36-1 61 12 60 46-2 46-39 62-91 62-38 0-71-6-76-38zm35-3c6 35 97 29 94-9-2-28-50-14-78-17-8 7-15 14-16 26zm20-150c0 22 4 40 23 40 20 0 24-17 24-40 0-24-4-40-24-40-19 0-23 17-23 40" id="W"/><path fill="#3a414a" d="M12-250C113-222 137-19 52 49 40 59 28 69 12 77V57C48 29 56-24 56-87s-9-116-44-143v-20" id="X"/><g id="g"><use transform="matrix(0.0864197530864197,0,0,0.0864197530864197,0,0)" xlink:href="#R"/><use transform="matrix(0.0864197530864197,0,0,0.0864197530864197,18.925925925925917,0)" xlink:href="#F"/><use transform="matrix(0.0864197530864197,0,0,0.0864197530864197,32.061728395061714,0)" xlink:href="#H"/><use transform="matrix(0.0864197530864197,0,0,0.0864197530864197,47.61728395061727,0)" xlink:href="#K"/><use transform="matrix(0.0864197530864197,0,0,0.0864197530864197,61.358024691358004,0)" xlink:href="#I"/><use transform="matrix(0.0864197530864197,0,0,0.0864197530864197,75.09876543209873,0)" xlink:href="#T"/><use transform="matrix(0.0864197530864197,0,0,0.0864197530864197,87.19753086419749,0)" xlink:href="#T"/><use transform="matrix(0.0864197530864197,0,0,0.0864197530864197,99.29629629629625,0)" xlink:href="#U"/><use transform="matrix(0.0864197530864197,0,0,0.0864197530864197,107.93827160493821,0)" xlink:href="#V"/><use transform="matrix(0.0864197530864197,0,0,0.0864197530864197,125.22222222222217,0)" xlink:href="#W"/><use transform="matrix(0.0864197530864197,0,0,0.0864197530864197,140.77777777777771,0)" xlink:href="#X"/></g><path fill="#3a414a" d="M6-13l30-5v-200l-30-5v-13h201v60h-16l-6-38-93-2v86h61l6-26h16v73h-16l-6-27H92v91l104-3 10-44h16l-4 66H6v-13" id="Y"/><path fill="#3a414a" d="M15-82c-4-69 47-101 113-83l-1-69-17-4v-12h68v234l18 4V0h-63l-4-9C77 23 5-9 15-82zm112-66c-43-16-64 17-61 65 2 33 3 67 32 67 12 0 22-3 29-8v-124" id="Z"/><g id="h"><use transform="matrix(0.0987654320987654,0,0,0.0987654320987654,0,0)" xlink:href="#Y"/><use transform="matrix(0.0987654320987654,0,0,0.0987654320987654,23.703703703703695,0)" xlink:href="#V"/><use transform="matrix(0.0987654320987654,0,0,0.0987654320987654,43.45679012345677,0)" xlink:href="#Z"/></g><path fill="#3a414a" d="M92-20c74 11 92-29 92-98 0-66-23-103-92-98v196zm150-99C242 9 136 6 6 0v-13l31-5v-200l-31-5v-13h112c81 0 124 34 124 117" id="aa"/><g id="i"><use transform="matrix(0.08641975308641972,0,0,0.08641975308641972,0,0)" xlink:href="#aa"/><use transform="matrix(0.08641975308641972,0,0,0.08641975308641972,22.382716049382708,0)" xlink:href="#E"/><use transform="matrix(0.08641975308641972,0,0,0.08641975308641972,37.93827160493826,0)" xlink:href="#D"/><use transform="matrix(0.08641975308641972,0,0,0.08641975308641972,48.22222222222221,0)" xlink:href="#E"/></g><g id="j"><use transform="matrix(0.08641975308641972,0,0,0.08641975308641972,0,0)" xlink:href="#R"/><use transform="matrix(0.08641975308641972,0,0,0.08641975308641972,18.92592592592592,0)" xlink:href="#F"/><use transform="matrix(0.08641975308641972,0,0,0.08641975308641972,32.06172839506172,0)" xlink:href="#H"/><use transform="matrix(0.08641975308641972,0,0,0.08641975308641972,47.617283950617264,0)" xlink:href="#K"/><use transform="matrix(0.08641975308641972,0,0,0.08641975308641972,61.358024691358004,0)" xlink:href="#I"/><use transform="matrix(0.08641975308641972,0,0,0.08641975308641972,75.09876543209874,0)" xlink:href="#T"/><use transform="matrix(0.08641975308641972,0,0,0.08641975308641972,87.1975308641975,0)" xlink:href="#T"/><use transform="matrix(0.08641975308641972,0,0,0.08641975308641972,99.29629629629626,0)" xlink:href="#U"/><use transform="matrix(0.08641975308641972,0,0,0.08641975308641972,107.93827160493824,0)" xlink:href="#V"/><use transform="matrix(0.08641975308641972,0,0,0.08641975308641972,125.2222222222222,0)" xlink:href="#W"/></g><path fill="#3a414a" d="M76-116c0 86 71 126 135 84l6-39h16l-1 60C138 21 18 1 18-115c0-117 106-141 210-112l1 57h-16l-5-34c-13-9-32-16-54-16-60 0-78 42-78 104" id="ab"/><path fill="#3a414a" d="M42-53c42-2 40 57 18 79C46 40 29 50 5 56V40c17-6 32-15 35-34-4-16-27-14-26-36 1-16 12-23 28-23" id="ac"/><g id="k"><use transform="matrix(0.08641975308641972,0,0,0.08641975308641972,0,0)" xlink:href="#Q"/><use transform="matrix(0.08641975308641972,0,0,0.08641975308641972,10.283950617283947,0)" xlink:href="#R"/><use transform="matrix(0.08641975308641972,0,0,0.08641975308641972,29.209876543209866,0)" xlink:href="#ab"/><use transform="matrix(0.08641975308641972,0,0,0.08641975308641972,51.592592592592574,0)" xlink:href="#J"/><use transform="matrix(0.08641975308641972,0,0,0.08641975308641972,73.97530864197529,0)" xlink:href="#ac"/></g><path fill="#3a414a" d="M203-218l-32-5v-13h84v13l-30 5V0h-21L59-189v171l32 5V0H7v-13l30-5v-200l-30-5v-13h81L203-85v-133" id="ad"/><path fill="#3a414a" d="M126-114c3-31-27-37-49-25v123l15 4V0H10v-12l16-4v-133l-16-5v-11h64l2 14c24-16 81-33 96 3 30-24 105-39 105 27v105l17 4V0h-82v-12l14-4v-98c4-33-27-37-51-24 5 35 0 82 2 122l17 4V0h-83v-12l15-4v-98" id="ae"/><path fill="#3a414a" d="M7 0v-8l76-141c-18 1-39-3-50 6l-6 27H14v-49h129v8L67-16c24 0 48 1 63-8l9-38h13l-5 62H7" id="af"/><g id="l"><use transform="matrix(0.08641975308641972,0,0,0.08641975308641972,0,0)" xlink:href="#ad"/><use transform="matrix(0.08641975308641972,0,0,0.08641975308641972,22.382716049382708,0)" xlink:href="#H"/><use transform="matrix(0.08641975308641972,0,0,0.08641975308641972,37.93827160493826,0)" xlink:href="#F"/><use transform="matrix(0.08641975308641972,0,0,0.08641975308641972,51.67901234567899,0)" xlink:href="#ae"/><use transform="matrix(0.08641975308641972,0,0,0.08641975308641972,77.51851851851849,0)" xlink:href="#E"/><use transform="matrix(0.08641975308641972,0,0,0.08641975308641972,93.07407407407403,0)" xlink:href="#S"/><use transform="matrix(0.08641975308641972,0,0,0.08641975308641972,101.71604938271604,0)" xlink:href="#U"/><use transform="matrix(0.08641975308641972,0,0,0.08641975308641972,110.358024691358,0)" xlink:href="#af"/><use transform="matrix(0.08641975308641972,0,0,0.08641975308641972,124.09876543209874,0)" xlink:href="#E"/><use transform="matrix(0.08641975308641972,0,0,0.08641975308641972,139.65432098765427,0)" xlink:href="#D"/><use transform="matrix(0.08641975308641972,0,0,0.08641975308641972,149.93827160493822,0)" xlink:href="#U"/><use transform="matrix(0.08641975308641972,0,0,0.08641975308641972,158.5802469135802,0)" xlink:href="#H"/><use transform="matrix(0.08641975308641972,0,0,0.08641975308641972,174.13580246913574,0)" xlink:href="#V"/><use transform="matrix(0.08641975308641972,0,0,0.08641975308641972,191.4197530864197,0)" xlink:href="#X"/></g><g id="m"><use transform="matrix(0.0864197530864197,0,0,0.0864197530864197,0,0)" xlink:href="#R"/><use transform="matrix(0.0864197530864197,0,0,0.0864197530864197,18.925925925925917,0)" xlink:href="#F"/><use transform="matrix(0.0864197530864197,0,0,0.0864197530864197,32.66666666666665,0)" xlink:href="#U"/><use transform="matrix(0.0864197530864197,0,0,0.0864197530864197,41.30864197530862,0)" xlink:href="#V"/><use transform="matrix(0.0864197530864197,0,0,0.0864197530864197,58.59259259259256,0)" xlink:href="#K"/><use transform="matrix(0.0864197530864197,0,0,0.0864197530864197,72.33333333333329,0)" xlink:href="#U"/><use transform="matrix(0.0864197530864197,0,0,0.0864197530864197,80.97530864197526,0)" xlink:href="#N"/><use transform="matrix(0.0864197530864197,0,0,0.0864197530864197,98.25925925925921,0)" xlink:href="#E"/><use transform="matrix(0.0864197530864197,0,0,0.0864197530864197,113.81481481481475,0)" xlink:href="#S"/></g><g id="n"><use transform="matrix(0.0864197530864197,0,0,0.0864197530864197,0,0)" xlink:href="#ab"/><use transform="matrix(0.0864197530864197,0,0,0.0864197530864197,22.382716049382704,0)" xlink:href="#H"/><use transform="matrix(0.0864197530864197,0,0,0.0864197530864197,37.93827160493825,0)" xlink:href="#ae"/><use transform="matrix(0.0864197530864197,0,0,0.0864197530864197,63.77777777777774,0)" xlink:href="#N"/><use transform="matrix(0.0864197530864197,0,0,0.0864197530864197,81.06172839506169,0)" xlink:href="#H"/><use transform="matrix(0.0864197530864197,0,0,0.0864197530864197,96.61728395061724,0)" xlink:href="#V"/><use transform="matrix(0.0864197530864197,0,0,0.0864197530864197,113.9012345679012,0)" xlink:href="#I"/><use transform="matrix(0.0864197530864197,0,0,0.0864197530864197,127.64197530864193,0)" xlink:href="#V"/><use transform="matrix(0.0864197530864197,0,0,0.0864197530864197,144.92592592592587,0)" xlink:href="#D"/></g><g id="o"><use transform="matrix(0.0864197530864197,0,0,0.0864197530864197,0,0)" xlink:href="#J"/><use transform="matrix(0.0864197530864197,0,0,0.0864197530864197,22.382716049382704,0)" xlink:href="#V"/><use transform="matrix(0.0864197530864197,0,0,0.0864197530864197,39.66666666666664,0)" xlink:href="#E"/><use transform="matrix(0.0864197530864197,0,0,0.0864197530864197,55.222222222222186,0)" xlink:href="#S"/><use transform="matrix(0.0864197530864197,0,0,0.0864197530864197,63.86419753086416,0)" xlink:href="#M"/><use transform="matrix(0.0864197530864197,0,0,0.0864197530864197,79.4197530864197,0)" xlink:href="#T"/><use transform="matrix(0.0864197530864197,0,0,0.0864197530864197,91.51851851851848,0)" xlink:href="#U"/><use transform="matrix(0.0864197530864197,0,0,0.0864197530864197,100.16049382716044,0)" xlink:href="#T"/></g><g id="p"><use transform="matrix(0.0987654320987654,0,0,0.0987654320987654,0,0)" xlink:href="#J"/><use transform="matrix(0.0987654320987654,0,0,0.0987654320987654,25.58024691358024,0)" xlink:href="#V"/><use transform="matrix(0.0987654320987654,0,0,0.0987654320987654,45.333333333333314,0)" xlink:href="#H"/><use transform="matrix(0.0987654320987654,0,0,0.0987654320987654,63.11111111111109,0)" xlink:href="#ae"/><use transform="matrix(0.0987654320987654,0,0,0.0987654320987654,92.64197530864195,0)" xlink:href="#E"/><use transform="matrix(0.0987654320987654,0,0,0.0987654320987654,110.41975308641972,0)" xlink:href="#S"/><use transform="matrix(0.0987654320987654,0,0,0.0987654320987654,120.29629629629626,0)" xlink:href="#M"/></g><g id="q"><use transform="matrix(0.0987654320987654,0,0,0.0987654320987654,0,0)" xlink:href="#aa"/><use transform="matrix(0.0987654320987654,0,0,0.0987654320987654,25.58024691358024,0)" xlink:href="#I"/><use transform="matrix(0.0987654320987654,0,0,0.0987654320987654,41.283950617283935,0)" xlink:href="#D"/><use transform="matrix(0.0987654320987654,0,0,0.0987654320987654,53.03703703703702,0)" xlink:href="#I"/><use transform="matrix(0.0987654320987654,0,0,0.0987654320987654,68.74074074074072,0)" xlink:href="#K"/><use transform="matrix(0.0987654320987654,0,0,0.0987654320987654,84.44444444444441,0)" xlink:href="#D"/><use transform="matrix(0.0987654320987654,0,0,0.0987654320987654,96.19753086419749,0)" xlink:href="#U"/><use transform="matrix(0.0987654320987654,0,0,0.0987654320987654,106.07407407407403,0)" xlink:href="#H"/><use transform="matrix(0.0987654320987654,0,0,0.0987654320987654,123.8518518518518,0)" xlink:href="#V"/></g><path fill="#3a414a" d="M98-18l30 5V0H12v-13l30-5v-200l-30-5v-13h116v13l-30 5v200" id="ag"/><g id="r"><use transform="matrix(0.0987654320987654,0,0,0.0987654320987654,0,0)" xlink:href="#ag"/><use transform="matrix(0.0987654320987654,0,0,0.0987654320987654,13.827160493827156,0)" xlink:href="#T"/><use transform="matrix(0.0987654320987654,0,0,0.0987654320987654,27.654320987654312,0)" xlink:href="#H"/><use transform="matrix(0.0987654320987654,0,0,0.0987654320987654,45.43209876543209,0)" xlink:href="#S"/><use transform="matrix(0.0987654320987654,0,0,0.0987654320987654,55.308641975308625,0)" xlink:href="#E"/><use transform="matrix(0.0987654320987654,0,0,0.0987654320987654,73.0864197530864,0)" xlink:href="#D"/><use transform="matrix(0.0987654320987654,0,0,0.0987654320987654,84.83950617283949,0)" xlink:href="#U"/><use transform="matrix(0.0987654320987654,0,0,0.0987654320987654,94.71604938271604,0)" xlink:href="#H"/><use transform="matrix(0.0987654320987654,0,0,0.0987654320987654,112.49382716049381,0)" xlink:href="#V"/></g><path fill="#3a414a" d="M92-101v83l39 5V0H8v-13l28-5v-200l-30-5v-13h197v64h-17l-5-42c-27-3-59-2-89-2v96h57l6-30h15v80h-15l-6-31H92" id="ah"/><g id="s"><use transform="matrix(0.0987654320987654,0,0,0.0987654320987654,0,0)" xlink:href="#ah"/><use transform="matrix(0.0987654320987654,0,0,0.0987654320987654,21.629629629629623,0)" xlink:href="#H"/><use transform="matrix(0.0987654320987654,0,0,0.0987654320987654,39.40740740740739,0)" xlink:href="#F"/><use transform="matrix(0.0987654320987654,0,0,0.0987654320987654,54.41975308641973,0)" xlink:href="#I"/><use transform="matrix(0.0987654320987654,0,0,0.0987654320987654,70.12345679012343,0)" xlink:href="#T"/><use transform="matrix(0.0987654320987654,0,0,0.0987654320987654,83.95061728395058,0)" xlink:href="#D"/></g><path fill="#3a414a" d="M140-221c-55 0-64 47-64 103S8-14 140-14c56 0 64-48 64-104s-9-103-64-103zm0 225C61 4 18-36 18-118c0-81 41-120 122-120 80 0 122 39 122 120C262-36 219 4 140 4" id="ai"/><g id="t"><use transform="matrix(0.09259259259259256,0,0,0.09259259259259256,0,0)" xlink:href="#ai"/><use transform="matrix(0.09259259259259256,0,0,0.09259259259259256,25.925925925925917,0)" xlink:href="#V"/><use transform="matrix(0.09259259259259256,0,0,0.09259259259259256,44.44444444444443,0)" xlink:href="#I"/></g><path fill="#3a414a" d="M256-236v13l-22 5L143 5h-24L23-218l-19-5v-13h103v13l-25 5 66 154 62-154-23-5v-13h69" id="aj"/><g id="u"><use transform="matrix(0.09259259259259256,0,0,0.09259259259259256,0,0)" xlink:href="#C"/><use transform="matrix(0.09259259259259256,0,0,0.09259259259259256,18.518518518518512,0)" xlink:href="#aj"/><use transform="matrix(0.09259259259259256,0,0,0.09259259259259256,42.499999999999986,0)" xlink:href="#G"/></g><path fill="#3a414a" d="M168-150L102 4H81L12-149c-7-2-15-4-12-16h85v11l-20 5 42 94 38-94-19-5v-11h54v11" id="ak"/><g id="v"><use transform="matrix(0.09259259259259256,0,0,0.09259259259259256,0,0)" xlink:href="#Y"/><use transform="matrix(0.09259259259259256,0,0,0.09259259259259256,22.222222222222214,0)" xlink:href="#ak"/><use transform="matrix(0.09259259259259256,0,0,0.09259259259259256,38.88888888888887,0)" xlink:href="#H"/><use transform="matrix(0.09259259259259256,0,0,0.09259259259259256,55.55555555555553,0)" xlink:href="#S"/><use transform="matrix(0.09259259259259256,0,0,0.09259259259259256,64.81481481481478,0)" xlink:href="#L"/><use transform="matrix(0.09259259259259256,0,0,0.09259259259259256,83.33333333333329,0)" xlink:href="#D"/><use transform="matrix(0.09259259259259256,0,0,0.09259259259259256,94.3518518518518,0)" xlink:href="#U"/><use transform="matrix(0.09259259259259256,0,0,0.09259259259259256,103.61111111111106,0)" xlink:href="#H"/><use transform="matrix(0.09259259259259256,0,0,0.09259259259259256,120.27777777777771,0)" xlink:href="#V"/></g><path fill="#3a414a" d="M120-239c38 0 63 14 63 50 0 35-25 46-51 57l67 60c7-16 9-34 10-54l-19-5v-11h84v11l-20 5c-6 27-17 55-31 76 19 14 29 37 59 39V0h-67l-21-19C148 15 17 19 21-63c2-40 26-57 55-68-12-15-23-31-23-57 0-36 27-51 67-51zM92-114c-35 18-32 99 24 99 26 0 46-9 60-21zm28-108c-37 2-21 62-4 74 26-3 34-71 4-74" id="al"/><use transform="matrix(0.09259259259259256,0,0,0.09259259259259256,0,0)" xlink:href="#al" id="w"/><g id="x"><use transform="matrix(0.09259259259259256,0,0,0.09259259259259256,0,0)" xlink:href="#ab"/><use transform="matrix(0.09259259259259256,0,0,0.09259259259259256,23.981481481481474,0)" xlink:href="#H"/><use transform="matrix(0.09259259259259256,0,0,0.09259259259259256,40.64814814814814,0)" xlink:href="#ae"/><use transform="matrix(0.09259259259259256,0,0,0.09259259259259256,68.33333333333331,0)" xlink:href="#N"/><use transform="matrix(0.09259259259259256,0,0,0.09259259259259256,86.85185185185182,0)" xlink:href="#E"/><use transform="matrix(0.09259259259259256,0,0,0.09259259259259256,103.51851851851848,0)" xlink:href="#F"/><use transform="matrix(0.09259259259259256,0,0,0.09259259259259256,118.2407407407407,0)" xlink:href="#U"/><use transform="matrix(0.09259259259259256,0,0,0.09259259259259256,127.49999999999993,0)" xlink:href="#T"/><use transform="matrix(0.09259259259259256,0,0,0.09259259259259256,140.4629629629629,0)" xlink:href="#H"/><use transform="matrix(0.09259259259259256,0,0,0.09259259259259256,157.12962962962956,0)" xlink:href="#V"/></g><path fill="#3a414a" d="M107-230c-31-13-29 30-29 65h34v18H78v131l27 4V0H10v-12l18-4v-131H3v-12l25-7c-8-66 31-98 95-84v39h-11" id="am"/><g id="y"><use transform="matrix(0.09259259259259256,0,0,0.09259259259259256,0,0)" xlink:href="#Q"/><use transform="matrix(0.09259259259259256,0,0,0.09259259259259256,11.018518518518515,0)" xlink:href="#R"/><use transform="matrix(0.09259259259259256,0,0,0.09259259259259256,31.296296296296283,0)" xlink:href="#I"/><use transform="matrix(0.09259259259259256,0,0,0.09259259259259256,46.018518518518505,0)" xlink:href="#F"/><use transform="matrix(0.09259259259259256,0,0,0.09259259259259256,60.74074074074072,0)" xlink:href="#am"/><use transform="matrix(0.09259259259259256,0,0,0.09259259259259256,71.75925925925924,0)" xlink:href="#H"/><use transform="matrix(0.09259259259259256,0,0,0.09259259259259256,88.4259259259259,0)" xlink:href="#F"/><use transform="matrix(0.09259259259259256,0,0,0.09259259259259256,103.14814814814811,0)" xlink:href="#ae"/><use transform="matrix(0.09259259259259256,0,0,0.09259259259259256,130.8333333333333,0)" xlink:href="#E"/><use transform="matrix(0.09259259259259256,0,0,0.09259259259259256,147.49999999999994,0)" xlink:href="#V"/><use transform="matrix(0.09259259259259256,0,0,0.09259259259259256,166.01851851851845,0)" xlink:href="#K"/><use transform="matrix(0.09259259259259256,0,0,0.09259259259259256,180.74074074074068,0)" xlink:href="#I"/></g><g id="z"><use transform="matrix(0.09259259259259256,0,0,0.09259259259259256,0,0)" xlink:href="#G"/><use transform="matrix(0.09259259259259256,0,0,0.09259259259259256,31.38888888888888,0)" xlink:href="#I"/><use transform="matrix(0.09259259259259256,0,0,0.09259259259259256,46.1111111111111,0)" xlink:href="#D"/><use transform="matrix(0.09259259259259256,0,0,0.09259259259259256,57.12962962962962,0)" xlink:href="#F"/><use transform="matrix(0.09259259259259256,0,0,0.09259259259259256,71.85185185185183,0)" xlink:href="#U"/><use transform="matrix(0.09259259259259256,0,0,0.09259259259259256,81.11111111111109,0)" xlink:href="#K"/><use transform="matrix(0.09259259259259256,0,0,0.09259259259259256,95.8333333333333,0)" xlink:href="#T"/><use transform="matrix(0.09259259259259256,0,0,0.09259259259259256,108.79629629629626,0)" xlink:href="#X"/></g><g id="A"><use transform="matrix(0.08641975308641972,0,0,0.08641975308641972,0,0)" xlink:href="#aa"/><use transform="matrix(0.08641975308641972,0,0,0.08641975308641972,22.382716049382708,0)" xlink:href="#E"/><use transform="matrix(0.08641975308641972,0,0,0.08641975308641972,37.93827160493826,0)" xlink:href="#D"/><use transform="matrix(0.08641975308641972,0,0,0.08641975308641972,48.22222222222221,0)" xlink:href="#E"/></g><g id="B"><use transform="matrix(0.08641975308641972,0,0,0.08641975308641972,0,0)" xlink:href="#ad"/><use transform="matrix(0.08641975308641972,0,0,0.08641975308641972,22.382716049382708,0)" xlink:href="#H"/><use transform="matrix(0.08641975308641972,0,0,0.08641975308641972,37.93827160493826,0)" xlink:href="#F"/><use transform="matrix(0.08641975308641972,0,0,0.08641975308641972,51.67901234567899,0)" xlink:href="#ae"/><use transform="matrix(0.08641975308641972,0,0,0.08641975308641972,77.51851851851849,0)" xlink:href="#E"/><use transform="matrix(0.08641975308641972,0,0,0.08641975308641972,93.07407407407403,0)" xlink:href="#S"/><use transform="matrix(0.08641975308641972,0,0,0.08641975308641972,101.71604938271604,0)" xlink:href="#U"/><use transform="matrix(0.08641975308641972,0,0,0.08641975308641972,110.358024691358,0)" xlink:href="#af"/><use transform="matrix(0.08641975308641972,0,0,0.08641975308641972,124.09876543209874,0)" xlink:href="#E"/><use transform="matrix(0.08641975308641972,0,0,0.08641975308641972,139.65432098765427,0)" xlink:href="#D"/><use transform="matrix(0.08641975308641972,0,0,0.08641975308641972,149.93827160493822,0)" xlink:href="#U"/><use transform="matrix(0.08641975308641972,0,0,0.08641975308641972,158.5802469135802,0)" xlink:href="#H"/><use transform="matrix(0.08641975308641972,0,0,0.08641975308641972,174.13580246913574,0)" xlink:href="#V"/></g></defs></g></svg>